<svg xmlns="http://www.w3.org/2000/svg" width="20" height="20" viewBox="0 0 20 20">
<mask id="mask0_1673_2706" style="mask-type:alpha" maskUnits="userSpaceOnUse" x="0" y="0" width="20" height="20">
<rect width="20" height="20" fill="#D9D9D9"></rect>
</mask>
<g mask="url(#mask0_1673_2706)">
<path d="M2.62728 10.356H17.3726C17.461 10.356 17.5458 10.3205 17.6083 10.2573C17.6708 10.194 17.7059 10.1083 17.7059 10.0189V6.34867C17.7065 6.25941 17.6719 6.17359 17.6099 6.11003L15.2766 3.75061C15.2141 3.6874 15.1293 3.65187 15.0409 3.65186H2.62728C2.53887 3.65186 2.45409 3.68737 2.39158 3.75058C2.32906 3.81379 2.29395 3.89952 2.29395 3.98892V10.0189C2.29395 10.1083 2.32906 10.194 2.39158 10.2573C2.45409 10.3205 2.53887 10.356 2.62728 10.356ZM17.0393 6.48821V9.68185H10.6336V4.32631H14.9003L17.0393 6.48821ZM2.96061 4.32631H9.96695V9.68185H2.96061V4.32631Z"></path>
<path d="M16.2257 1.43225C16.1632 1.36904 16.0784 1.33352 15.99 1.3335H0.333333C0.244928 1.3335 0.160143 1.36901 0.0976311 1.43222C0.0351189 1.49543 0 1.58116 0 1.67056V15.493C0 15.5824 0.0351189 15.6682 0.0976311 15.7314C0.160143 15.7946 0.244928 15.8301 0.333333 15.8301C1.16365 15.8306 1.95981 16.1644 2.54694 16.7581C3.13406 17.3518 3.46414 18.1568 3.46467 18.9964C3.46467 19.0858 3.49979 19.1716 3.5623 19.2348C3.62481 19.298 3.70959 19.3335 3.798 19.3335H19.6667C19.7551 19.3335 19.8399 19.298 19.9024 19.2348C19.9649 19.1716 20 19.0858 20 18.9964V5.38799C20 5.2986 19.9649 5.21288 19.9023 5.14969L16.2257 1.43225ZM0.666667 15.1708V2.00762H15.852L19.3333 5.52753V16.5854H13.2377C13.1493 16.5855 13.0645 16.621 13.002 16.6842L11.0483 18.6594H4.117C4.03735 17.7612 3.64825 16.9199 3.01762 16.2823C2.38699 15.6446 1.55491 15.2513 0.666667 15.1708ZM11.9913 18.6594L13.3767 17.2596H19.3333V18.6594H11.9913Z"></path>
<path d="M4.81734 6.25912L5.28867 5.78252L7.53867 8.05734L7.067 8.53394L4.81734 6.25912ZM6.03967 5.81791L6.511 5.34131L7.975 6.82167L7.50367 7.29828L6.03967 5.81791ZM11.7773 6.26013L12.2487 5.78353L14.4987 8.05835L14.027 8.53495L11.7773 6.26013ZM13 5.81892L13.4713 5.34198L14.9353 6.82235L14.464 7.29895L13 5.81892ZM12.9197 13.5042C13.0081 13.5042 13.0929 13.4687 13.1554 13.4055C13.2179 13.3423 13.253 13.2566 13.253 13.1672V11.9875C13.253 11.8981 13.2179 11.8123 13.1554 11.7491C13.0929 11.6859 13.0081 11.6504 12.9197 11.6504H10.8837C10.6406 11.6504 10.4074 11.748 10.2355 11.9219C10.0636 12.0957 9.967 12.3315 9.967 12.5773C9.967 12.8231 10.0636 13.0589 10.2355 13.2327C10.4074 13.4066 10.6406 13.5042 10.8837 13.5042H12.9197ZM10.6337 12.5773C10.6338 12.5103 10.6602 12.4461 10.7071 12.3987C10.7539 12.3514 10.8174 12.3247 10.8837 12.3245H12.5863V12.8301H10.8837C10.8174 12.8299 10.7539 12.8032 10.7071 12.7559C10.6602 12.7085 10.6338 12.6443 10.6337 12.5773ZM5.24634 11.6504H3.21C2.96689 11.6504 2.73373 11.748 2.56182 11.9219C2.38991 12.0957 2.29333 12.3315 2.29333 12.5773C2.29333 12.8231 2.38991 13.0589 2.56182 13.2327C2.73373 13.4066 2.96689 13.5042 3.21 13.5042H5.24567C5.33407 13.5042 5.41886 13.4687 5.48137 13.4055C5.54388 13.3423 5.579 13.2566 5.579 13.1672V11.9875C5.579 11.8982 5.54397 11.8125 5.48161 11.7494C5.41924 11.6862 5.33463 11.6506 5.24634 11.6504ZM4.913 12.8301H3.21C3.1437 12.8301 3.08011 12.8035 3.03322 12.7561C2.98634 12.7087 2.96 12.6444 2.96 12.5773C2.96 12.5103 2.98634 12.446 3.03322 12.3986C3.08011 12.3511 3.1437 12.3245 3.21 12.3245H4.91234L4.913 12.8301Z"></path>
</g>
</svg>