<svg xmlns="http://www.w3.org/2000/svg" width="20" height="20" viewBox="0 0 20 20" class="">
<mask id="mask0_1673_2677" style="mask-type:alpha" maskUnits="userSpaceOnUse" x="0" y="0" width="20" height="20">
<rect width="20" height="20" fill="#D9D9D9"></rect>
</mask>
<g mask="url(#mask0_1673_2677)">
<path d="M10 0C4.48566 0 0 4.48609 0 10C0 15.5139 4.48566 20 10 20C15.5143 20 20 15.5139 20 10C20 4.48609 15.5143 0 10 0ZM10 19.1667C4.94547 19.1667 0.83332 15.0545 0.83332 10C0.83332 4.94547 4.94547 0.83332 10 0.83332C15.0545 0.83332 19.1667 4.94547 19.1667 10C19.1667 15.0545 15.0545 19.1667 10 19.1667Z"></path>
<path d="M13.9754 9.6499L8.14211 5.8999C8.01434 5.8165 7.84914 5.81201 7.7173 5.88443C7.65152 5.92022 7.59661 5.97309 7.55836 6.03747C7.52012 6.10186 7.49995 6.17537 7.5 6.25025V13.7503C7.5 13.9028 7.58301 14.0428 7.7173 14.1161C7.77847 14.1494 7.84702 14.1669 7.91668 14.1669C7.99481 14.1669 8.07375 14.1449 8.14211 14.1006L13.9754 10.3506C14.0943 10.2741 14.1667 10.1419 14.1667 10.0003C14.1667 9.85865 14.0943 9.72643 13.9754 9.6499ZM8.33332 12.9869V7.01361L12.9793 10.0003L8.33332 12.9869Z"></path>
</g>
</svg>