<svg xmlns="http://www.w3.org/2000/svg" width="20" height="20" viewBox="0 0 20 20">
<mask id="mask0_1673_2691" style="mask-type:alpha" maskUnits="userSpaceOnUse" x="0" y="0" width="20" height="20">
<rect width="20" height="20" fill="#D9D9D9"></rect>
</mask>
<g mask="url(#mask0_1673_2691)">
<path d="M3.8709 14.58H3.17017V6.13965C3.171 5.50898 3.43648 4.90438 3.90835 4.45849C4.38023 4.0126 5.01996 3.76184 5.6872 3.76123H14.4926C15.1599 3.76184 15.7996 4.0126 16.2715 4.45849C16.7433 4.90438 17.0088 5.50898 17.0096 6.13965V14.5797H16.3089V6.13965C16.3083 5.68459 16.1167 5.24835 15.7762 4.92663C15.4357 4.60492 14.9741 4.424 14.4926 4.42356H5.6872C5.20575 4.424 4.74414 4.60492 4.40364 4.92663C4.06314 5.24835 3.87155 5.68459 3.8709 6.13965V14.58Z"></path>
<path d="M12.9207 4.42365H7.25947C6.95361 4.42304 6.66047 4.3079 6.44423 4.10345C6.22799 3.899 6.10627 3.62189 6.10571 3.3328V1.35111C6.10627 1.06201 6.22799 0.784906 6.44423 0.580455C6.66047 0.376003 6.95361 0.260867 7.25947 0.260254H12.9207C13.2265 0.260867 13.5197 0.376003 13.7359 0.580455C13.9522 0.784906 14.0739 1.06201 14.0745 1.35111V3.3328C14.0739 3.62189 13.9522 3.899 13.7359 4.10345C13.5197 4.3079 13.2265 4.42304 12.9207 4.42365ZM7.25947 0.922582C7.13946 0.923192 7.02455 0.968546 6.93972 1.04879C6.85489 1.12903 6.807 1.23767 6.80645 1.35111V3.3328C6.807 3.44623 6.85489 3.55487 6.93972 3.63512C7.02455 3.71536 7.13946 3.76071 7.25947 3.76132H12.9207C13.0407 3.76071 13.1556 3.71536 13.2404 3.63512C13.3253 3.55487 13.3732 3.44623 13.3737 3.3328V1.35111C13.3732 1.23767 13.3253 1.12903 13.2404 1.04879C13.1556 0.968546 13.0407 0.923192 12.9207 0.922582H7.25947ZM12.8156 16.6271H7.36458C7.27166 16.6271 7.18254 16.5922 7.11683 16.5301C7.05113 16.4679 7.01421 16.3837 7.01421 16.2959V9.00299C7.01449 8.72073 7.13327 8.4501 7.34447 8.25055C7.55566 8.05099 7.84201 7.9388 8.14064 7.93863H12.0395C12.3382 7.9388 12.6245 8.05099 12.8357 8.25055C13.0469 8.4501 13.1657 8.72073 13.1659 9.00299V16.2952C13.166 16.3388 13.157 16.3819 13.1395 16.4222C13.1219 16.4624 13.0961 16.499 13.0636 16.5298C13.031 16.5606 12.9924 16.5851 12.9498 16.6018C12.9073 16.6185 12.8617 16.6271 12.8156 16.6271ZM7.71495 15.9647H12.4652V9.00299C12.465 8.89636 12.4201 8.79415 12.3403 8.71878C12.2605 8.64342 12.1523 8.60104 12.0395 8.60096H8.14064C8.02783 8.60104 7.91966 8.64342 7.83986 8.71878C7.76005 8.79415 7.71513 8.89636 7.71495 9.00299V15.9647Z"></path>
<path d="M7.36451 13.2402H12.8159V13.9026H7.36451V13.2402ZM7.36451 5.51517H12.8159V6.1775H7.36451V5.51517ZM16.0687 20.2603H4.11135C3.39867 20.2596 2.7154 19.9916 2.21146 19.5153C1.70752 19.039 1.42408 18.3932 1.42334 17.7196V15.4537C1.42371 15.1339 1.55826 14.8273 1.79747 14.6012C2.03668 14.375 2.36103 14.2477 2.69937 14.2473H4.12957C4.38221 14.2479 4.63037 14.3104 4.84988 14.4286C5.06938 14.5468 5.25276 14.7168 5.38213 14.9219L6.03556 15.9647H14.1444L14.7982 14.9219C14.9275 14.7168 15.1108 14.5468 15.3303 14.4286C15.5497 14.3104 15.7978 14.2479 16.0504 14.2473H17.4806C17.819 14.2477 18.1433 14.375 18.3825 14.6012C18.6218 14.8273 18.7563 15.1339 18.7567 15.4537V17.7196C18.7559 18.3932 18.4725 19.039 17.9686 19.5153C17.4646 19.9916 16.7813 20.2596 16.0687 20.2603ZM2.69937 14.9096C2.54682 14.9099 2.4006 14.9673 2.29276 15.0693C2.18492 15.1713 2.12426 15.3095 2.12407 15.4537V17.7196C2.12463 18.2176 2.33418 18.695 2.70675 19.0472C3.07931 19.3993 3.58446 19.5974 4.11135 19.5979H16.0687C16.5956 19.5974 17.1007 19.3993 17.4733 19.0472C17.8458 18.695 18.0554 18.2176 18.0559 17.7196V15.4537C18.0558 15.3095 17.9951 15.1713 17.8873 15.0693C17.7794 14.9673 17.6332 14.9099 17.4806 14.9096H16.0504C15.9194 14.91 15.7907 14.9424 15.6769 15.0038C15.563 15.0651 15.468 15.1533 15.4009 15.2597L14.6448 16.4648C14.6138 16.5142 14.5697 16.5552 14.5168 16.5836C14.464 16.6121 14.4043 16.627 14.3435 16.6271H5.83551C5.7747 16.627 5.71495 16.6121 5.66212 16.5836C5.60929 16.5552 5.5652 16.5142 5.53419 16.4648L4.77915 15.2597C4.71211 15.1532 4.61703 15.0651 4.50319 15.0037C4.38934 14.9424 4.26062 14.9099 4.12957 14.9096H2.69937ZM11.8418 2.41282H8.33817C8.24525 2.41282 8.15613 2.37793 8.09043 2.31583C8.02472 2.25372 7.98781 2.16949 7.98781 2.08166V0.591418C7.98781 0.503588 8.02472 0.419355 8.09043 0.35725C8.15613 0.295144 8.24525 0.260254 8.33817 0.260254H11.8418C11.9348 0.260254 12.0239 0.295144 12.0896 0.35725C12.1553 0.419355 12.1922 0.503588 12.1922 0.591418V2.08166C12.1922 2.16949 12.1553 2.25372 12.0896 2.31583C12.0239 2.37793 11.9348 2.41282 11.8418 2.41282ZM8.68854 1.75049H11.4915V0.922582H8.68854V1.75049Z"></path>
</g>
</svg>